# xmcd
#
# Track frame offsets:
#	150
#	17677
#	34170
#	47411
#	65086
#	79509
#	94114
#	109485
#	125473
#	137630
#	152699
#	166974
#	176496
#	195459
#	213882
#	227648
#
# Disc length: 3271 seconds
#
# Revision: 1
# Processed by: cddbd v1.5.2PL0 Copyright (c) Steve Scherf et al.
# Submitted via: audiograbber 1.83.01
#
DISCID=cd0cc510
DTITLE=Sammy's Saloon - Sammy's Saloon Featuring Nancy Wood
DYEAR=1989
DGENRE=Country
TTITLE0=Sammy's Saloon Faet. Nancy Wood - Country Queen (Rock'n'Roll Teacher)
TTITLE1=Sammy's Saloon - Country Music In Texas (Heart)
TTITLE2=Sammy's Saloon - Cowboyhut Und Schlangenschuh
TTITLE3=Sammy's Saloon - Lousiana Traeume
TTITLE4=Sammy's Saloon - Der Mond Von Kentucky
TTITLE5=Sammy's Saloon - Millionaers-Blues
TTITLE6=Sammy's Saloon - Der Traktor
TTITLE7=Sammy's Saloon - Mich Ruft Die Autobahn
TTITLE8=Sammy's Saloon Faet. Nancy Wood - Stark Genug
TTITLE9=Sammy's Saloon - Das Lied Vom Hufeisen
TTITLE10=Sammy's Saloon - Ich Lueg' Um Dir Zu Gefall'n (I Lie To You)
TTITLE11=Sammy's Saloon - Dolly Partons Hits
TTITLE12=Sammy's Saloon - Sie Kocht Den Besten Kaffe Von Ganz Texas
TTITLE13=Sammy's Saloon - Della Und Der Dealer (Della And The Dealer)
TTITLE14=Sammy's Saloon - Dann Lieb' Ich Dich Noch Mehr
TTITLE15=Sammy's Saloon - 18 Raeder Und Ein Dutzend Rosen
EXTD=
EXTT0=
EXTT1=
EXTT2=
EXTT3=
EXTT4=
EXTT5=
EXTT6=
EXTT7=
EXTT8=
EXTT9=
EXTT10=
EXTT11=
EXTT12=
EXTT13=
EXTT14=
EXTT15=
PLAYORDER=
